<svg viewBox="0 0 185.243740157 101.467759223" width="185.243740157pt" height="101.467759223pt" xmlns="http://www.w3.org/2000/svg" xmlns:xlink="http://www.w3.org/1999/xlink" xmlns:h5="http://www.w3.org/1999/xhtml"><g transform="translate(2 2)"><path fill="#fdf3df" fill-rule="nonzero" transform="translate(73.700787402 4.726934312)" d="M 0 0m 0 67.33816805l 78.18133882 25.40265686l 4.043862353 -52.119244248l -35.074508295 -40.621580663l -47.150692878 67.33816805Z "/><path fill="none" stroke="#000000" stroke-width="0.5" stroke-linecap="butt" stroke-linejoin="miter" stroke-miterlimit="4" stroke-dashoffset="0" stroke-dasharray="3 3" transform="translate(73.700787402 72.065102362)" d="M 0 0l 78.18133882 25.40265686"/><path fill="none" stroke="#000000" stroke-width="0.5" stroke-linecap="butt" stroke-linejoin="miter" stroke-miterlimit="4" stroke-dashoffset="0" stroke-dasharray="3 3" transform="translate(73.700787402 4.726934312)" d="M 0 0m 0 67.33816805l 47.150692878 -67.33816805"/><path fill="none" transform="translate(115.445169199 22.303762067)" d="M 0 0h 22.913v 10.241h -22.913v -10.241Z "/><g transform="translate(115.445169089 22.303761957)"><g transform="matrix(1 0 0 -1 0 7.513)"><use xlink:href="#gC929D9B6831873D8D399DD0CABC2967A" x="0" y="0" fill="#000000" fill-rule="nonzero"/></g><g transform="matrix(1 0 0 -1 7.403 7.513)"><use xlink:href="#gCBFDB4FAA60E8030E7B751E03D6CAAA6" x="0" y="0" fill="#000000" fill-rule="nonzero"/></g><g transform="matrix(1 0 0 -1 11.682 7.513)"><use xlink:href="#gFA4DDD10D1A47581CD7453565BB7F83F" x="0" y="0" fill="#000000" fill-rule="nonzero"/></g><g transform="matrix(1 0 0 -1 18.634 7.513)"><use xlink:href="#g11C1096A524ED08942C2BB5E0564A17C" x="0" y="0" fill="#000000" fill-rule="nonzero"/></g></g><path fill="none" stroke="#000000" stroke-width="0.6" stroke-linecap="butt" stroke-linejoin="miter" stroke-miterlimit="4" transform="translate(0 50.805259843)" d="M 0 0h 164.409448819"/><path fill="none" transform="translate(158.913740157 36.850393701)" d="M 0 0h 22.33v 9.768h -22.33v -9.768Z "/><g transform="translate(158.913740126 36.850393606)"><g transform="matrix(1 0 0 -1 0 7.513)"><use xlink:href="#g5BB5A5643DF209AD788B255B91C141E0" x="0" y="0" fill="#000000" fill-rule="nonzero"/><use xlink:href="#g4F15B44AD1AAE7906B9D9F9C3850F14B" x="8.096" y="0" fill="#000000" fill-rule="nonzero"/></g><g transform="matrix(1 0 0 -1 16.632 7.513)"><use xlink:href="#gC4346895D6C96E8B0D9A48E3FDBF3CF0" x="0" y="0" fill="#000000" fill-rule="nonzero"/></g></g><path fill="none" stroke="#000000" stroke-width="0.6" stroke-linecap="butt" stroke-linejoin="miter" stroke-miterlimit="4" transform="translate(14.173228346 5.450929134)" d="M 0 0m 0 90.708661417v -90.708661417"/><path fill="none" transform="translate(18.521779528)" d="M 0 0h 22.484v 9.768h -22.484v -9.768Z "/><g transform="translate(18.521779465 -9.4e-8)"><g transform="matrix(1 0 0 -1 0 7.513)"><use xlink:href="#g896C9853BB0E984B5E472A54BFD43879" x="0" y="0" fill="#000000" fill-rule="nonzero"/><use xlink:href="#g5EF7A2FE47BCD00C1DDF63F6B87CC52A" x="3.971" y="0" fill="#000000" fill-rule="nonzero"/></g><g transform="matrix(1 0 0 -1 16.786 7.513)"><use xlink:href="#gC4346895D6C96E8B0D9A48E3FDBF3CF0" x="0" y="0" fill="#000000" fill-rule="nonzero"/></g></g><path fill="none" stroke="#aaaaaa" stroke-width="1.3" stroke-linecap="butt" stroke-linejoin="miter" stroke-miterlimit="4" transform="translate(59.527559055 50.805259843)" d="M 0 0h 87.440137771"/><path fill="none" stroke="#aaaaaa" stroke-width="1.3" stroke-linecap="butt" stroke-linejoin="miter" stroke-miterlimit="4" transform="translate(145.550374016 48.679275591)" d="M 0 0m 5.669291339 2.125984252l -5.669291339 -2.125984252l 1.417322835 2.125984252l -1.417322835 2.125984252l 5.669291339 -2.125984252Z "/><path fill="#ffffff" fill-rule="nonzero" stroke="#000000" stroke-width="0.6" stroke-linecap="butt" stroke-linejoin="miter" stroke-miterlimit="4" transform="translate(57.543307087 48.821007874)" d="M 0 0m 1.984251969 0c -1.094878488 0 -1.984251969 0.88937348 -1.984251969 1.984251969c 0 1.094878488 0.88937348 1.984251969 1.984251969 1.984251969c 1.094878488 0 1.984251969 -0.88937348 1.984251969 -1.984251969c 0 -1.094878488 -0.88937348 -1.984251969 -1.984251969 -1.984251969Z "/><path fill="none" transform="translate(98.573826772 41.551968504)" d="M 0 0h 29.624v 7.168h -29.624v -7.168Z "/><g transform="translate(98.573826756 41.551968378)"><g transform="matrix(1 0 0 -1 0 5.264)"><use xlink:href="#g7C37A9C463BC9BF55909BE5329E2D5BC" x="0" y="0" fill="#888888" fill-rule="nonzero"/><use xlink:href="#g20EDBE1E989F56AA9FBFD4A2EF5BDC35" x="4" y="0" fill="#888888" fill-rule="nonzero"/><use xlink:href="#gF14903D79C881A9B6AC2EE7D8BED6F03" x="7.576" y="0" fill="#888888" fill-rule="nonzero"/><use xlink:href="#g58427B726775E01C628C261B90DBAC4F" x="10.552" y="0" fill="#888888" fill-rule="nonzero"/><use xlink:href="#gF14903D79C881A9B6AC2EE7D8BED6F03" x="18.872" y="0" fill="#888888" fill-rule="nonzero"/><use xlink:href="#g7CADDE05683A2F282E92796EAE7002E6" x="21.848" y="0" fill="#888888" fill-rule="nonzero"/><use xlink:href="#g64D5FC8B1E004A420EE0292D56516B04" x="25.504" y="0" fill="#888888" fill-rule="nonzero"/></g></g><path fill="none" stroke="#000000" stroke-width="0.7" stroke-linecap="butt" stroke-linejoin="miter" stroke-miterlimit="4" transform="translate(59.122609674 50.805259843)" d="M 0 0m 0.404949381 0c -1.584816542 9.508899251 1.482139929 16.027372994 9.200869412 19.555421229"/><path fill="#000000" fill-rule="nonzero" stroke="#000000" stroke-width="0.7" stroke-linecap="butt" stroke-linejoin="miter" stroke-miterlimit="4" transform="translate(66.703950184 68.038061972)" d="M 0 0m 6.045906005 3.728140894l -4.770915917 -3.728140894l 0.714607696 2.453150806l -1.989597784 1.603157414l 6.045906005 -0.328167326Z "/><path fill="#c0392b" fill-rule="nonzero" transform="translate(71.716535433 70.080850394)" d="M 0 0m 1.984251969 0c -1.094878488 0 -1.984251969 0.88937348 -1.984251969 1.984251969c 0 1.094878488 0.88937348 1.984251969 1.984251969 1.984251969c 1.094878488 0 1.984251969 -0.88937348 1.984251969 -1.984251969c 0 -1.094878488 -0.88937348 -1.984251969 -1.984251969 -1.984251969Z "/><path fill="none" transform="translate(43.744263386 78.211685039)" d="M 0 0h 25.8973v 10.384h -25.8973v -10.384Z "/><g transform="translate(43.744263307 78.211684961)"><g transform="matrix(1 0 0 -1 0 7.513)"><use xlink:href="#gC4346895D6C96E8B0D9A48E3FDBF3CF0" x="0" y="0" fill="#000000" fill-rule="nonzero"/></g><g transform="matrix(1 0 0 -1 5.39 10.23)"><use xlink:href="#g6BBDA2C83ED50876E6E330EDA5C956B5" x="0" y="0" fill="#000000" fill-rule="nonzero"/></g><g transform="matrix(1 0 0 -1 10.3873 7.513)"><use xlink:href="#gCBFDB4FAA60E8030E7B751E03D6CAAA6" x="0" y="0" fill="#000000" fill-rule="nonzero"/></g><g transform="matrix(1 0 0 -1 14.6663 7.513)"><use xlink:href="#gFA4DDD10D1A47581CD7453565BB7F83F" x="0" y="0" fill="#000000" fill-rule="nonzero"/></g><g transform="matrix(1 0 0 -1 21.6183 7.513)"><use xlink:href="#g11C1096A524ED08942C2BB5E0564A17C" x="0" y="0" fill="#000000" fill-rule="nonzero"/></g></g><path fill="none" stroke="#2457a6" stroke-width="1" stroke-linecap="butt" stroke-linejoin="miter" stroke-miterlimit="4" transform="translate(73.700787402 46.86023243)" d="M 0 0m 0 25.204869932l 69.249810998 -25.204869932"/><path fill="#2457a6" fill-rule="nonzero" stroke="#2457a6" stroke-width="1" stroke-linecap="butt" stroke-linejoin="miter" stroke-miterlimit="4" transform="translate(140.891621258 45.347213712)" d="M 0 0m 6.054520663 0.058759894l -6.054520663 -0.058759894l 2.058977239 1.513018757l -0.604718376 2.482524666l 4.6002618 -3.936783529Z "/><path fill="none" transform="translate(112.114586614 59.857988189)" d="M 0 0h 22.385v 10.241h -22.385v -10.241Z "/><g transform="translate(112.114586551 59.857988079)"><g transform="matrix(1 0 0 -1 0 7.513)"><use xlink:href="#g807E77C89306A233CB1EDB0A8F61C70C" x="0" y="0" fill="#2457a6" fill-rule="nonzero"/></g><g transform="matrix(1 0 0 -1 6.875 7.513)"><use xlink:href="#gCBFDB4FAA60E8030E7B751E03D6CAAA6" x="0" y="0" fill="#2457a6" fill-rule="nonzero"/></g><g transform="matrix(1 0 0 -1 11.154 7.513)"><use xlink:href="#gFA4DDD10D1A47581CD7453565BB7F83F" x="0" y="0" fill="#2457a6" fill-rule="nonzero"/></g><g transform="matrix(1 0 0 -1 18.106 7.513)"><use xlink:href="#g11C1096A524ED08942C2BB5E0564A17C" x="0" y="0" fill="#2457a6" fill-rule="nonzero"/></g></g></g><defs><symbol id="gC929D9B6831873D8D399DD0CABC2967A" overflow="visible"><path d="M 0 0m 1.463 1.727c 0 0.264 0.033 0.484 0.088 0.66c 0 0.11 -0.055 0.165 -0.176 0.165c -0.055 0 -0.099 -0.022 -0.121 -0.044c -0.055 -0.055 -0.682 -2.42 -0.682 -2.596c 0 -0.099 0.055 -0.154 0.165 -0.154c 0.055 0 0.132 0.055 0.231 0.176l 0.495 0.583c 0.385 -0.506 1.001 -0.759 1.837 -0.759c 0.726 0 1.364 0.297 1.936 0.88c 0.572 0.583 0.858 1.232 0.858 1.958c 0 0.517 -0.176 0.957 -0.539 1.309c -0.165 0.143 -0.385 0.264 -0.66 0.363c -0.253 0.055 -0.495 0.121 -0.737 0.187l -0.726 0.198c -0.363 0.099 -0.638 0.506 -0.638 0.946c 0 0.473 0.187 0.88 0.572 1.232c 0.385 0.352 0.814 0.528 1.287 0.528c 1.012 0 1.518 -0.55 1.518 -1.639c 0 -0.198 -0.044 -0.418 -0.044 -0.605v -0.033c 0.033 -0.077 0.088 -0.121 0.176 -0.121c 0.099 0 0.165 0.088 0.209 0.253l 0.583 2.387c 0 0.099 -0.055 0.154 -0.165 0.154c -0.055 0 -0.132 -0.055 -0.231 -0.176l -0.473 -0.572c -0.308 0.495 -0.825 0.748 -1.562 0.748c -0.693 0 -1.32 -0.264 -1.87 -0.781c -0.572 -0.528 -0.858 -1.133 -0.858 -1.826c 0 -0.792 0.517 -1.419 1.166 -1.595l 1.155 -0.297c 0.594 -0.165 0.968 -0.374 0.968 -1.111c 0 -0.506 -0.198 -0.957 -0.583 -1.353c -0.385 -0.396 -0.825 -0.605 -1.32 -0.605c -1.078 0 -1.859 0.473 -1.859 1.54Z "/></symbol><symbol id="gCBFDB4FAA60E8030E7B751E03D6CAAA6" overflow="visible"><path d="M 0 0m 3.498 -2.728c 0.099 0 0.154 0.055 0.154 0.154c 0 0.033 -0.022 0.077 -0.055 0.121c -0.572 0.44 -1.034 1.166 -1.375 2.167c -0.297 0.869 -0.451 1.727 -0.451 2.574v 0.924c 0 0.847 0.154 1.705 0.451 2.574c 0.341 1.001 0.803 1.727 1.375 2.167c 0.033 0.033 0.055 0.077 0.055 0.121c 0 0.099 -0.055 0.154 -0.154 0.154c -0.011 0 -0.044 -0.011 -0.077 -0.033c -0.66 -0.506 -1.21 -1.254 -1.661 -2.255c -0.429 -0.957 -0.649 -1.859 -0.649 -2.728v -0.924c 0 -0.869 0.22 -1.771 0.649 -2.728c 0.451 -1.001 1.001 -1.749 1.661 -2.255c 0.033 -0.022 0.066 -0.033 0.077 -0.033Z "/></symbol><symbol id="gFA4DDD10D1A47581CD7453565BB7F83F" overflow="visible"><path d="M 0 0m 5.555 4.301c 0 -0.121 0.044 -0.231 0.132 -0.308c 0.275 -0.231 0.407 -0.539 0.407 -0.913c 0 -0.143 -0.011 -0.275 -0.044 -0.396c -0.22 -0.836 -0.803 -1.936 -1.694 -1.936c -0.572 0 -0.913 0.308 -1.023 0.924c 0.143 0.297 0.253 0.605 0.33 0.946c 0.033 0.121 0.044 0.22 0.044 0.286c 0 0.22 -0.088 0.33 -0.253 0.33c -0.418 0 -0.528 -1.056 -0.55 -1.518c -0.407 -0.649 -0.88 -0.968 -1.441 -0.968c -0.605 0 -0.902 0.396 -0.902 1.177c 0 0.22 0.033 0.451 0.088 0.693c 0.121 0.484 0.44 1.089 0.957 1.804c 0.044 0.055 0.066 0.11 0.066 0.165c 0 0.143 -0.077 0.22 -0.242 0.22c -0.077 0 -0.154 -0.033 -0.22 -0.11c -0.539 -0.737 -1.067 -2.035 -1.067 -3.234c 0 -1.056 0.396 -1.584 1.188 -1.584c 0.627 0 1.166 0.363 1.639 1.078c 0.154 -0.715 0.572 -1.078 1.243 -1.078c 0.363 0 0.704 0.143 1.012 0.429c 0.517 0.484 0.902 1.254 1.166 2.31c 0.165 0.671 0.253 1.144 0.253 1.441c 0 0.319 -0.077 0.55 -0.231 0.693c -0.077 0.077 -0.176 0.11 -0.275 0.11c -0.286 0 -0.583 -0.275 -0.583 -0.561Z "/></symbol><symbol id="g11C1096A524ED08942C2BB5E0564A17C" overflow="visible"><path d="M 0 0m 0.858 -2.695c 0.66 0.506 1.21 1.254 1.661 2.255c 0.429 0.957 0.649 1.859 0.649 2.728v 0.924c 0 0.869 -0.22 1.771 -0.649 2.728c -0.451 1.001 -1.001 1.749 -1.661 2.255c -0.033 0.022 -0.066 0.033 -0.077 0.033c -0.099 0 -0.154 -0.055 -0.154 -0.154c 0 -0.044 0.022 -0.088 0.055 -0.121c 0.572 -0.44 1.034 -1.166 1.375 -2.167c 0.297 -0.869 0.451 -1.727 0.451 -2.574v -0.924c 0 -0.847 -0.154 -1.705 -0.451 -2.574c -0.341 -1.001 -0.803 -1.727 -1.375 -2.167c -0.033 -0.044 -0.055 -0.088 -0.055 -0.121c 0 -0.099 0.055 -0.154 0.154 -0.154c 0.011 0 0.044 0.011 0.077 0.033Z "/></symbol><symbol id="g5BB5A5643DF209AD788B255B91C141E0" overflow="visible"><path d="M 0 0m 6.721 5.511c 0 0.627 -0.341 1.133 -1.012 1.518c -0.561 0.319 -1.188 0.484 -1.87 0.484h -3.454v -0.429h 0.308c 0.385 0 0.616 -0.033 0.693 -0.088c 0.077 -0.055 0.121 -0.176 0.121 -0.374v -5.731c 0 -0.198 -0.044 -0.33 -0.121 -0.385c -0.077 -0.055 -0.308 -0.088 -0.693 -0.088h -0.308v -0.429c 0.297 0.033 0.836 0.044 1.628 0.044c 0.803 0 1.342 -0.011 1.639 -0.044v 0.429h -0.308c -0.385 0 -0.616 0.033 -0.693 0.088c -0.077 0.055 -0.121 0.187 -0.121 0.385v 2.706h 1.21c 0.704 0 1.221 -0.418 1.342 -1.012c 0.022 -0.121 0.033 -0.385 0.033 -0.77c 0 -0.297 0.011 -0.517 0.022 -0.649c 0.066 -0.924 0.869 -1.408 1.837 -1.408c 0.418 0 0.715 0.176 0.88 0.517c 0.132 0.253 0.198 0.495 0.198 0.726c 0 0.143 -0.066 0.22 -0.187 0.22c -0.099 0 -0.165 -0.066 -0.176 -0.209c -0.055 -0.616 -0.286 -0.924 -0.671 -0.924c -0.385 0 -0.517 0.363 -0.583 0.682c -0.066 0.374 -0.11 0.66 -0.143 0.847l -0.143 0.869c -0.165 0.572 -0.572 0.99 -1.221 1.243c 0.836 0.242 1.793 0.836 1.793 1.782Z m -1.551 1.089c 0.231 -0.209 0.352 -0.572 0.352 -1.089c 0 -0.418 -0.11 -0.77 -0.319 -1.067c -0.253 -0.341 -0.748 -0.517 -1.507 -0.517h -1.166v 2.772c 0 0.231 0.066 0.352 0.198 0.363c 0.077 0.011 0.286 0.022 0.638 0.022c 0.869 0 1.32 -0.033 1.804 -0.484Z "/></symbol><symbol id="g4F15B44AD1AAE7906B9D9F9C3850F14B" overflow="visible"><path d="M 0 0m 4.565 2.761c 0 1.265 -0.737 2.167 -1.969 2.167c -0.66 0 -1.21 -0.253 -1.661 -0.77c -0.418 -0.484 -0.627 -1.067 -0.627 -1.738c 0 -0.693 0.231 -1.276 0.693 -1.782c 0.462 -0.506 1.034 -0.759 1.716 -0.759c 0.627 0 1.111 0.22 1.441 0.649c 0.275 0.363 0.407 0.627 0.407 0.803c 0 0.11 -0.066 0.165 -0.187 0.165c -0.088 0 -0.143 -0.055 -0.176 -0.176c -0.242 -0.726 -0.715 -1.089 -1.419 -1.089c -0.495 0 -0.88 0.231 -1.177 0.704c -0.209 0.341 -0.308 0.858 -0.319 1.562h 2.97c 0.242 0 0.308 0.022 0.308 0.264Z m -0.979 1.078c 0.121 -0.363 0.176 -0.715 0.176 -1.034h -2.464c 0.033 0.726 0.22 1.221 0.55 1.474c 0.275 0.22 0.517 0.33 0.748 0.33c 0.495 0 0.825 -0.253 0.99 -0.77Z "/></symbol><symbol id="gC4346895D6C96E8B0D9A48E3FDBF3CF0" overflow="visible"><path d="M 0 0m 1.793 4.862c -0.495 0 -0.88 -0.275 -1.155 -0.825c -0.209 -0.429 -0.319 -0.726 -0.319 -0.891c 0 -0.099 0.055 -0.154 0.176 -0.154c 0.154 0 0.165 0.066 0.209 0.231c 0.253 0.869 0.605 1.309 1.056 1.309c 0.143 0 0.22 -0.099 0.22 -0.297c 0 -0.176 -0.055 -0.429 -0.176 -0.748c -0.418 -1.133 -0.627 -1.892 -0.627 -2.299c 0 -0.836 0.517 -1.331 1.364 -1.331c 0.363 0 0.704 0.132 1.012 0.396c -0.385 -1.452 -0.99 -2.178 -1.815 -2.178c -0.374 0 -0.627 0.121 -0.759 0.363c 0.44 0.022 0.66 0.231 0.66 0.627c 0 0.275 -0.143 0.418 -0.44 0.418c -0.407 0 -0.649 -0.341 -0.649 -0.748c 0 -0.605 0.55 -0.99 1.188 -0.99c 1.265 0 2.299 1.166 2.574 2.244l 1.034 4.158c 0.033 0.121 0.044 0.209 0.044 0.264c 0 0.22 -0.121 0.33 -0.352 0.33c -0.176 0 -0.319 -0.088 -0.418 -0.253c -0.066 -0.231 -0.121 -0.429 -0.154 -0.594l -0.704 -2.827c -0.11 -0.396 -0.693 -0.891 -1.188 -0.891c -0.418 0 -0.627 0.275 -0.627 0.836c 0 0.462 0.187 1.166 0.55 2.112c 0.143 0.385 0.22 0.649 0.22 0.803c 0 0.539 -0.385 0.935 -0.924 0.935Z "/></symbol><symbol id="g896C9853BB0E984B5E472A54BFD43879" overflow="visible"><path d="M 0 0m 1.98 0.033c 0.847 0 1.408 -0.011 1.683 -0.033v 0.429h -0.319c -0.396 0 -0.638 0.022 -0.715 0.077c -0.077 0.055 -0.121 0.187 -0.121 0.385v 5.731c 0 0.198 0.044 0.319 0.121 0.374c 0.077 0.055 0.319 0.088 0.715 0.088h 0.319v 0.429c -0.275 -0.022 -0.836 -0.033 -1.672 -0.033c -0.847 0 -1.408 0.011 -1.683 0.033v -0.429h 0.319c 0.396 0 0.638 -0.033 0.715 -0.088c 0.077 -0.055 0.121 -0.176 0.121 -0.374v -5.731c 0 -0.198 -0.044 -0.33 -0.121 -0.385c -0.077 -0.055 -0.319 -0.077 -0.715 -0.077h -0.319v -0.429c 0.275 0.022 0.836 0.033 1.672 0.033Z "/></symbol><symbol id="g5EF7A2FE47BCD00C1DDF63F6B87CC52A" overflow="visible"><path d="M 0 0m 3.465 4.543c 0.506 0 0.759 -0.385 0.759 -1.166v -2.508c 0 -0.209 -0.033 -0.341 -0.11 -0.385c -0.077 -0.044 -0.33 -0.066 -0.737 -0.066v -0.418l 1.276 0.033l 1.265 -0.033v 0.418c -0.407 0 -0.649 0.022 -0.726 0.066c -0.077 0.044 -0.121 0.176 -0.121 0.385v 1.98c 0 0.88 0.572 1.694 1.419 1.694c 0.517 0 0.77 -0.385 0.77 -1.166v -2.508c 0 -0.209 -0.044 -0.341 -0.121 -0.385c -0.077 -0.044 -0.33 -0.066 -0.737 -0.066v -0.418l 1.276 0.033l 1.265 -0.033v 0.418c -0.352 0 -0.583 0.011 -0.693 0.044c -0.11 0.033 -0.154 0.11 -0.154 0.242v 2.057c 0 0.517 -0.022 0.88 -0.055 1.089c -0.11 0.671 -0.605 1.012 -1.474 1.012c -0.693 0 -1.21 -0.319 -1.562 -0.968c -0.154 0.649 -0.638 0.968 -1.463 0.968c -0.693 0 -1.221 -0.33 -1.573 -0.99v 0.99l -1.617 -0.121v -0.418c 0.396 0 0.638 -0.033 0.726 -0.099c 0.088 -0.066 0.121 -0.209 0.121 -0.462v -2.893c 0 -0.209 -0.044 -0.341 -0.121 -0.385c -0.077 -0.044 -0.319 -0.066 -0.726 -0.066v -0.418l 1.276 0.033l 1.265 -0.033v 0.418c -0.407 0 -0.66 0.022 -0.737 0.066c -0.077 0.044 -0.121 0.176 -0.121 0.385v 1.98c 0 0.891 0.583 1.694 1.43 1.694Z "/></symbol><symbol id="g7C37A9C463BC9BF55909BE5329E2D5BC" overflow="visible"><path d="M 0 0m 3.552 3.096c 0.152 0 0.296 0.144 0.296 0.304c 0 0.168 -0.152 0.296 -0.368 0.296c -0.208 0 -0.592 -0.136 -0.8 -0.408c -0.096 0.064 -0.36 0.224 -0.832 0.224c -0.712 0 -1.368 -0.48 -1.368 -1.216c 0 -0.432 0.192 -0.68 0.416 -0.896c -0.224 -0.192 -0.352 -0.536 -0.352 -0.808c 0 -0.288 0.16 -0.512 0.368 -0.616c -0.432 -0.256 -0.656 -0.624 -0.656 -0.968c 0 -0.696 0.656 -0.912 1.272 -0.912c 1.08 0 2.248 0.52 2.248 1.384c 0 0.256 -0.12 0.456 -0.352 0.648c -0.312 0.256 -0.872 0.264 -1.168 0.264c -0.144 0 -0.344 -0.016 -0.536 -0.04c -0.12 -0.008 -0.2 -0.016 -0.24 -0.016c -0.232 0 -0.512 0.112 -0.512 0.456c 0 0.16 0.048 0.328 0.144 0.464c 0.192 -0.112 0.416 -0.168 0.728 -0.168c 0.704 0 1.352 0.44 1.352 1.224c 0 0.376 -0.112 0.592 -0.344 0.832c 0.056 0.08 0.216 0.192 0.32 0.192c 0.056 0 0.112 -0.024 0.16 -0.096c 0.032 -0.064 0.136 -0.144 0.224 -0.144Z m -2.496 -3.176c 0.088 -0.024 0.216 -0.04 0.32 -0.04c 0.248 0 0.472 0.024 0.584 0.024c 0.4 0 0.736 -0.008 0.968 -0.136c 0.312 -0.176 0.408 -0.288 0.408 -0.496c 0 -0.576 -0.848 -0.88 -1.568 -0.88c -0.288 0 -0.96 0.232 -0.96 0.776c 0 0.272 0.016 0.472 0.248 0.752Z m 1.496 2.312c 0 -0.744 -0.376 -0.896 -0.672 -0.896c -0.672 0 -0.744 0.568 -0.744 1.08c 0 0.56 0.2 0.848 0.64 0.848c 0.504 0 0.776 -0.368 0.776 -1.032Z "/></symbol><symbol id="g20EDBE1E989F56AA9FBFD4A2EF5BDC35" overflow="visible"><path d="M 0 0m 3.088 0.744c -0.296 -0.304 -0.528 -0.432 -0.992 -0.432c -0.288 0 -0.624 0.168 -0.872 0.576c -0.16 0.264 -0.256 0.632 -0.256 1.096l 2.128 -0.016c 0.096 0 0.152 0.048 0.152 0.136c 0 0.672 -0.24 1.392 -1.352 1.392c -0.696 0 -1.6 -0.664 -1.6 -1.88c 0 -0.448 0.112 -0.88 0.376 -1.184c 0.272 -0.32 0.648 -0.512 1.224 -0.512c 0.608 0 1.04 0.28 1.36 0.696c -0.024 0.08 -0.072 0.12 -0.168 0.128Z m -2.096 1.512c 0.152 0.904 0.712 0.976 0.904 0.976c 0.304 0 0.664 -0.168 0.664 -0.84c 0 -0.072 -0.032 -0.112 -0.12 -0.112Z "/></symbol><symbol id="gF14903D79C881A9B6AC2EE7D8BED6F03" overflow="visible"><path d="M 0 0m 1.408 2.864c -0.016 0.32 -0.024 0.528 -0.064 0.608c -0.016 0.04 -0.032 0.064 -0.096 0.064c -0.224 -0.088 -0.432 -0.16 -0.984 -0.232c -0.016 -0.048 0 -0.176 0.016 -0.224c 0.432 -0.04 0.52 -0.08 0.52 -0.544v -1.56c 0 -0.664 -0.096 -0.696 -0.592 -0.728c -0.048 -0.048 -0.048 -0.216 0 -0.264c 0.28 0.008 0.592 0.016 0.912 0.016c 0.32 0 0.688 -0.008 0.968 -0.016c 0.048 0.048 0.048 0.216 0 0.264c -0.56 0.04 -0.656 0.064 -0.656 0.728v 1.112c 0 0.208 0.096 0.392 0.192 0.536c 0.088 0.128 0.272 0.392 0.368 0.392c 0.072 0 0.144 -0.016 0.208 -0.104c 0.056 -0.08 0.152 -0.184 0.288 -0.184c 0.192 0 0.376 0.2 0.376 0.4c 0 0.152 -0.144 0.384 -0.48 0.384c -0.376 0 -0.704 -0.352 -0.888 -0.664c -0.048 -0.088 -0.088 -0.024 -0.088 0.016Z "/></symbol><symbol id="g58427B726775E01C628C261B90DBAC4F" overflow="visible"><path d="M 0 0m 1.36 2.864c -0.008 0.24 -0.024 0.528 -0.064 0.608c -0.016 0.04 -0.032 0.064 -0.096 0.064c -0.224 -0.088 -0.432 -0.16 -0.984 -0.232c -0.016 -0.048 0 -0.176 0.016 -0.224c 0.432 -0.04 0.52 -0.08 0.52 -0.544v -1.56c 0 -0.656 -0.104 -0.696 -0.544 -0.728c -0.048 -0.048 -0.048 -0.216 0 -0.264c 0.24 0.008 0.544 0.016 0.864 0.016c 0.32 0 0.568 -0.008 0.808 -0.016c 0.048 0.048 0.048 0.216 0 0.264c -0.408 0.04 -0.496 0.072 -0.496 0.728v 1.312c 0 0.168 0.072 0.264 0.136 0.336c 0.32 0.312 0.616 0.472 0.864 0.472c 0.304 0 0.528 -0.192 0.528 -0.728v -1.392c 0 -0.656 -0.064 -0.696 -0.496 -0.728c -0.04 -0.048 -0.04 -0.216 0 -0.264c 0.2 0.008 0.496 0.016 0.816 0.016c 0.32 0 0.584 -0.008 0.784 -0.016c 0.04 0.048 0.04 0.216 0 0.264c -0.4 0.032 -0.472 0.072 -0.472 0.728v 1.272c 0 0.112 0 0.224 -0.008 0.32c 0.384 0.424 0.744 0.528 1.056 0.528c 0.304 0 0.48 -0.176 0.48 -0.712v -1.408c 0 -0.656 -0.08 -0.696 -0.496 -0.728c -0.04 -0.048 -0.04 -0.216 0 -0.264c 0.2 0.008 0.496 0.016 0.816 0.016c 0.32 0 0.6 -0.008 0.824 -0.016c 0.04 0.048 0.04 0.216 0 0.264c -0.44 0.032 -0.512 0.072 -0.512 0.728v 1.264c 0 0.712 -0.12 1.272 -0.824 1.272c -0.408 0 -0.904 -0.152 -1.32 -0.592c -0.024 -0.024 -0.072 -0.064 -0.088 0.008c -0.072 0.328 -0.384 0.584 -0.8 0.584c -0.464 0 -0.88 -0.272 -1.216 -0.648c -0.04 -0.04 -0.088 -0.096 -0.096 0Z "/></symbol><symbol id="g7CADDE05683A2F282E92796EAE7002E6" overflow="visible"><path d="M 0 0m 2.344 0.384c 0.048 -0.248 0.136 -0.464 0.536 -0.464c 0.304 0 0.592 0.136 0.76 0.296c -0.016 0.096 -0.048 0.168 -0.136 0.216c -0.056 -0.048 -0.192 -0.128 -0.296 -0.128c -0.232 0 -0.24 0.312 -0.24 0.68v 1.176c 0 1.136 -0.624 1.352 -1.208 1.352c -0.656 0 -1.32 -0.432 -1.32 -0.888c 0 -0.192 0.096 -0.288 0.28 -0.288c 0.232 0 0.376 0.168 0.376 0.272c 0 0.056 -0.008 0.112 -0.024 0.144c -0.008 0.024 -0.016 0.072 -0.016 0.16c 0 0.248 0.336 0.336 0.64 0.336c 0.272 0 0.648 -0.136 0.648 -1.04c 0 -0.056 -0.024 -0.088 -0.048 -0.096l -0.688 -0.168c -0.768 -0.192 -1.32 -0.616 -1.32 -1.16c 0 -0.656 0.448 -0.864 1.008 -0.864c 0.28 0 0.52 0.064 0.872 0.336l 0.16 0.128Z m 0 1.48v -1.056c 0 -0.104 -0.048 -0.16 -0.112 -0.208c -0.208 -0.168 -0.48 -0.352 -0.704 -0.352c -0.4 0 -0.576 0.32 -0.576 0.568c 0 0.36 0.168 0.728 0.76 0.88Z "/></symbol><symbol id="g64D5FC8B1E004A420EE0292D56516B04" overflow="visible"><path d="M 0 0m 1.632 -1.28c 0.128 0.224 0.232 0.448 0.328 0.688c 0.64 1.544 1 2.368 1.416 3.264c 0.16 0.336 0.272 0.464 0.648 0.512c 0.048 0.048 0.048 0.216 0 0.264c -0.16 -0.008 -0.344 -0.016 -0.568 -0.016c -0.24 0 -0.488 0.008 -0.728 0.016c -0.048 -0.048 -0.048 -0.216 0 -0.264c 0.256 -0.024 0.512 -0.072 0.384 -0.36l -0.792 -1.832c -0.056 -0.128 -0.128 -0.152 -0.192 0.008l -0.712 1.664c -0.144 0.336 -0.184 0.488 0.264 0.52c 0.048 0.048 0.048 0.216 0 0.264c -0.296 -0.008 -0.616 -0.016 -0.904 -0.016c -0.272 0 -0.488 0.008 -0.648 0.016c -0.048 -0.048 -0.048 -0.216 0 -0.264c 0.32 -0.04 0.424 -0.112 0.632 -0.6l 0.904 -2.104c 0.072 -0.16 0.192 -0.528 0.112 -0.752c -0.096 -0.264 -0.192 -0.488 -0.312 -0.736c -0.088 -0.16 -0.2 -0.232 -0.4 -0.232c -0.112 0 -0.144 0.024 -0.232 0.024c -0.232 0 -0.352 -0.24 -0.352 -0.344c 0 -0.168 0.16 -0.296 0.376 -0.296c 0.168 0 0.488 0.064 0.776 0.576Z "/></symbol><symbol id="g6BBDA2C83ED50876E6E330EDA5C956B5" overflow="visible"><path d="M 0 0m 3.9732 2.4563c 0 0.8701 -0.154 1.5323 -0.4543 1.9866c -0.2464 0.385 -0.7392 0.6699 -1.3321 0.6699c -0.2464 0 -0.4697 -0.0385 -0.6622 -0.1232c -0.847 -0.3542 -1.1242 -1.3398 -1.1242 -2.5333c 0 -0.2618 0.0154 -0.5082 0.0385 -0.7469c 0.1309 -1.0087 0.6006 -1.8634 1.7479 -1.8634c 0.2464 0 0.4697 0.0385 0.6622 0.1232c 0.847 0.3465 1.1242 1.309 1.1242 2.4871Z m -0.8778 1.7094c 0.0847 -0.2849 0.1309 -0.8162 0.1309 -1.6093c 0 -0.7546 -0.0308 -1.2859 -0.1001 -1.6016c -0.0924 -0.4543 -0.4158 -0.8316 -0.9394 -0.8316c -0.1925 0 -0.385 0.0616 -0.5621 0.1925c -0.2387 0.1771 -0.385 0.5236 -0.4466 1.0549c -0.0231 0.1771 -0.0308 0.5698 -0.0308 1.1858c 0 0.7469 0.0385 1.2628 0.1155 1.54c 0.1309 0.4928 0.4389 0.7392 0.924 0.7392c 0.462 0 0.8008 -0.3003 0.9086 -0.6699Z "/></symbol><symbol id="g807E77C89306A233CB1EDB0A8F61C70C" overflow="visible"><path d="M 0 0m 3.014 7.051h 1.122c 0.737 0 1.221 -0.165 1.463 -0.495c 0.319 -0.451 0.352 -0.836 0.451 -1.606h 0.363l -0.319 2.53h -5.731v -0.429h 0.308c 0.385 0 0.616 -0.022 0.693 -0.077c 0.077 -0.055 0.121 -0.187 0.121 -0.385v -5.698c 0 -0.198 -0.044 -0.33 -0.121 -0.385c -0.077 -0.055 -0.308 -0.077 -0.693 -0.077h -0.308v -0.429c 0.286 0.022 0.847 0.033 1.694 0.033c 0.957 0 1.573 -0.011 1.859 -0.033v 0.429h -0.396c -0.583 0 -0.902 0.055 -0.957 0.176c -0.022 0.055 -0.033 0.154 -0.033 0.297v 5.764c 0 0.385 0.066 0.385 0.484 0.385Z "/></symbol></defs></svg>